<svg width="1232" height="297" viewBox="0 0 1232 297" fill="none" xmlns="http://www.w3.org/2000/svg">
<path d="M18.1524 71.3906L93.3443 21.0503C100.615 16.1828 110.606 13.5 121.023 13.5C131.44 13.5 141.432 16.1828 148.702 21.0502L223.894 71.3906C231.094 76.2109 233.546 81.668 233.546 86.0241C233.546 90.3801 231.094 95.8372 223.894 100.658L148.702 150.998C141.432 155.865 131.44 158.548 121.023 158.548C110.606 158.548 100.615 155.865 93.3443 150.998L18.1524 100.658C10.9525 95.8372 8.5 90.3801 8.5 86.0241C8.5 81.668 10.9525 76.2109 18.1524 71.3906Z" stroke="black" stroke-width="17"/>
<path d="M129 191.344V266.687C129 283.401 143.311 287.369 160.964 275.551C170.693 269.037 179.407 259.087 185.269 248.67C191.132 251.238 199.846 249.519 209.575 243.006C227.228 231.187 241.538 208.057 241.538 191.343V116L226.223 126.254V201.597C226.223 210.302 218.769 222.349 209.575 228.505C200.381 234.66 192.927 232.593 192.927 223.888V148.545L177.611 158.799V234.142C177.611 242.847 170.158 254.894 160.964 261.049C151.769 267.205 144.316 265.138 144.316 256.433V181.09L129 191.344Z" fill="black"/>
<path d="M0 116L15.3159 126.254V161.561C15.3159 167.132 20.0861 174.842 25.9704 178.782L85.2362 218.775C91.1205 222.715 95.8907 221.392 95.8907 215.82V180.513L111.207 190.767C111.207 225.864 111.207 260.961 111.207 296.058L95.8907 285.804V250.812C95.8907 245.241 91.1205 237.531 85.2362 233.592L25.9704 193.598C20.0861 189.659 15.3159 190.982 15.3159 196.553V231.545L0 221.291C0 186.194 0 151.097 0 116Z" fill="black"/>
<path d="M332.331 101V73H335.451V97.96H348.891V101H332.331ZM364.966 101.28C362.859 101.28 360.979 100.813 359.326 99.88C357.673 98.92 356.366 97.6133 355.406 95.96C354.473 94.28 354.006 92.3867 354.006 90.28V73H357.126V89.92C357.126 91.4933 357.473 92.9067 358.166 94.16C358.859 95.4133 359.793 96.4 360.966 97.12C362.166 97.84 363.499 98.2 364.966 98.2C366.513 98.2 367.886 97.84 369.086 97.12C370.313 96.4 371.273 95.4133 371.966 94.16C372.659 92.9067 373.006 91.4933 373.006 89.92V73H376.006V90.28C376.006 92.3867 375.526 94.28 374.566 95.96C373.633 97.6133 372.326 98.92 370.646 99.88C368.993 100.813 367.099 101.28 364.966 101.28ZM400.778 101L391.498 87.88L380.778 73H384.698L393.378 85.4L404.698 101H400.778ZM380.578 101L391.138 85.92L393.098 88.16L384.178 101H380.578ZM393.978 87.72L392.138 85.52L400.658 73H404.298L393.978 87.72ZM409.792 101V73H426.752V76.04H412.912V97.96H426.672V101H409.792ZM411.232 88.12V85.08H424.512V88.12H411.232ZM433.737 101V73H436.777L447.537 90.48L446.097 90.44L456.977 73H459.817V101H456.697V88.2C456.697 85.8 456.737 83.64 456.817 81.72C456.897 79.8 457.044 77.8933 457.257 76L457.817 77.12L447.777 92.88H445.617L435.857 77.32L436.297 76C436.511 77.7867 436.657 79.6267 436.737 81.52C436.817 83.3867 436.857 85.6133 436.857 88.2V101H433.737ZM468.073 101V73H479.433C481.06 73 482.46 73.2933 483.633 73.88C484.833 74.44 485.753 75.2533 486.393 76.32C487.033 77.36 487.353 78.6 487.353 80.04C487.353 81.5867 486.913 82.92 486.033 84.04C485.153 85.1333 483.953 85.8933 482.433 86.32L482.353 85.56C483.66 85.8 484.793 86.2667 485.753 86.96C486.713 87.6267 487.46 88.4533 487.993 89.44C488.553 90.4267 488.833 91.5333 488.833 92.76C488.833 94.0133 488.62 95.1467 488.193 96.16C487.766 97.1733 487.153 98.04 486.353 98.76C485.58 99.48 484.633 100.04 483.513 100.44C482.42 100.813 481.193 101 479.833 101H468.073ZM471.193 97.96H479.593C480.793 97.96 481.833 97.76 482.713 97.36C483.62 96.9333 484.313 96.3333 484.793 95.56C485.3 94.7867 485.553 93.8933 485.553 92.88C485.553 91.92 485.286 91.08 484.753 90.36C484.246 89.64 483.526 89.08 482.593 88.68C481.686 88.28 480.62 88.08 479.393 88.08H471.193V97.96ZM471.193 85.04H479.193C480.153 85.04 481.006 84.8533 481.753 84.48C482.5 84.08 483.086 83.5467 483.513 82.88C483.94 82.1867 484.153 81.4133 484.153 80.56C484.153 79.2 483.686 78.1067 482.753 77.28C481.846 76.4533 480.566 76.04 478.913 76.04H471.193V85.04ZM506.469 101.4C504.496 101.4 502.669 101.053 500.989 100.36C499.336 99.64 497.882 98.64 496.629 97.36C495.402 96.08 494.442 94.5733 493.749 92.84C493.082 91.08 492.749 89.16 492.749 87.08C492.749 85 493.082 83.0933 493.749 81.36C494.442 79.6 495.402 78.08 496.629 76.8C497.882 75.4933 499.336 74.4933 500.989 73.8C502.669 73.08 504.496 72.72 506.469 72.72C508.469 72.72 510.296 73.08 511.949 73.8C513.629 74.4933 515.082 75.4933 516.309 76.8C517.562 78.08 518.522 79.6 519.189 81.36C519.882 83.0933 520.229 85 520.229 87.08C520.229 89.1333 519.882 91.04 519.189 92.8C518.522 94.5333 517.562 96.0533 516.309 97.36C515.082 98.64 513.629 99.64 511.949 100.36C510.296 101.053 508.469 101.4 506.469 101.4ZM506.469 98.32C507.989 98.32 509.389 98.0533 510.669 97.52C511.976 96.96 513.096 96.1733 514.029 95.16C514.962 94.1467 515.682 92.96 516.189 91.6C516.722 90.2133 516.989 88.7067 516.989 87.08C516.989 85.4267 516.722 83.92 516.189 82.56C515.682 81.1733 514.962 79.9733 514.029 78.96C513.096 77.9467 511.976 77.16 510.669 76.6C509.389 76.04 507.989 75.76 506.469 75.76C504.949 75.76 503.536 76.04 502.229 76.6C500.949 77.16 499.842 77.9467 498.909 78.96C497.976 79.9733 497.256 81.1733 496.749 82.56C496.242 83.92 495.989 85.4267 495.989 87.08C495.989 88.7067 496.242 90.2133 496.749 91.6C497.256 92.96 497.976 94.1467 498.909 95.16C499.842 96.1733 500.949 96.96 502.229 97.52C503.536 98.0533 504.949 98.32 506.469 98.32ZM537.075 101.28C534.969 101.28 533.089 100.813 531.435 99.88C529.782 98.92 528.475 97.6133 527.515 95.96C526.582 94.28 526.115 92.3867 526.115 90.28V73H529.235V89.92C529.235 91.4933 529.582 92.9067 530.275 94.16C530.969 95.4133 531.902 96.4 533.075 97.12C534.275 97.84 535.609 98.2 537.075 98.2C538.622 98.2 539.995 97.84 541.195 97.12C542.422 96.4 543.382 95.4133 544.075 94.16C544.769 92.9067 545.115 91.4933 545.115 89.92V73H548.115V90.28C548.115 92.3867 547.635 94.28 546.675 95.96C545.742 97.6133 544.435 98.92 542.755 99.88C541.102 100.813 539.209 101.28 537.075 101.28ZM556.198 101V73H567.158C568.785 73 570.251 73.3867 571.558 74.16C572.891 74.9067 573.945 75.9333 574.718 77.24C575.491 78.5467 575.878 80.0267 575.878 81.68C575.878 83.2267 575.505 84.6267 574.758 85.88C574.011 87.1333 572.998 88.1333 571.718 88.88C570.438 89.6 568.998 89.96 567.398 89.96H559.318V101H556.198ZM573.278 101L566.238 88.68L569.238 87.64L576.998 101H573.278ZM559.318 86.92H567.678C568.665 86.92 569.531 86.6933 570.278 86.24C571.025 85.7867 571.611 85.1733 572.038 84.4C572.465 83.6 572.678 82.6933 572.678 81.68C572.678 80.5867 572.425 79.6133 571.918 78.76C571.411 77.9067 570.705 77.24 569.798 76.76C568.918 76.28 567.905 76.04 566.758 76.04H559.318V86.92ZM594.614 101.4C592.56 101.4 590.654 101.04 588.894 100.32C587.134 99.6 585.587 98.6 584.254 97.32C582.92 96.04 581.88 94.5333 581.134 92.8C580.414 91.04 580.054 89.1333 580.054 87.08C580.054 85.0267 580.414 83.1333 581.134 81.4C581.88 79.64 582.894 78.12 584.174 76.84C585.48 75.56 587 74.5733 588.734 73.88C590.494 73.16 592.374 72.8 594.374 72.8C595.787 72.8 597.174 73 598.534 73.4C599.92 73.8 601.174 74.36 602.294 75.08C603.414 75.8 604.32 76.6133 605.014 77.52L602.934 79.64C602.187 78.8667 601.347 78.2 600.414 77.64C599.48 77.08 598.494 76.64 597.454 76.32C596.44 76 595.427 75.84 594.414 75.84C592.84 75.84 591.374 76.12 590.014 76.68C588.68 77.24 587.507 78.0267 586.494 79.04C585.48 80.0267 584.694 81.2133 584.134 82.6C583.574 83.96 583.294 85.4533 583.294 87.08C583.294 88.6533 583.574 90.1333 584.134 91.52C584.72 92.88 585.534 94.08 586.574 95.12C587.64 96.1333 588.867 96.92 590.254 97.48C591.64 98.04 593.134 98.32 594.734 98.32C595.987 98.32 597.16 98.1333 598.254 97.76C599.374 97.3867 600.347 96.8667 601.174 96.2C602 95.5067 602.64 94.7067 603.094 93.8C603.547 92.8933 603.774 91.92 603.774 90.88V89.48L604.414 90.28H594.574V87.2H606.894C606.92 87.4133 606.947 87.6667 606.974 87.96C607 88.2267 607.014 88.5067 607.014 88.8C607.04 89.0667 607.054 89.32 607.054 89.56C607.054 91.2933 606.734 92.8933 606.094 94.36C605.454 95.8 604.56 97.0533 603.414 98.12C602.294 99.16 600.987 99.9733 599.494 100.56C598 101.12 596.374 101.4 594.614 101.4ZM390.088 206V116.4H400.072V206H390.088ZM330.184 206V116.4H340.168V206H330.184ZM335.048 166.192V156.464H394.312V166.192H335.048ZM452.162 207.28C445.506 207.28 439.575 205.787 434.37 202.8C429.25 199.813 425.197 195.675 422.21 190.384C419.309 185.093 417.858 179.077 417.858 172.336C417.858 165.68 419.309 159.749 422.21 154.544C425.197 149.339 429.25 145.243 434.37 142.256C439.575 139.269 445.506 137.776 452.162 137.776C458.733 137.776 464.578 139.269 469.698 142.256C474.903 145.243 478.957 149.339 481.858 154.544C484.845 159.749 486.338 165.68 486.338 172.336C486.338 179.077 484.845 185.093 481.858 190.384C478.957 195.675 474.903 199.813 469.698 202.8C464.578 205.787 458.733 207.28 452.162 207.28ZM452.162 198.192C456.855 198.192 461.037 197.083 464.706 194.864C468.375 192.56 471.234 189.488 473.282 185.648C475.33 181.723 476.354 177.285 476.354 172.336C476.354 167.387 475.33 162.992 473.282 159.152C471.234 155.312 468.375 152.325 464.706 150.192C461.037 147.973 456.855 146.864 452.162 146.864C447.469 146.864 443.245 147.973 439.49 150.192C435.821 152.325 432.919 155.355 430.786 159.28C428.738 163.12 427.757 167.472 427.842 172.336C427.757 177.285 428.738 181.723 430.786 185.648C432.919 189.488 435.821 192.56 439.49 194.864C443.245 197.083 447.469 198.192 452.162 198.192ZM524.024 207.28C518.904 207.28 514.552 206.256 510.968 204.208C507.469 202.075 504.781 199.003 502.904 194.992C501.112 190.981 500.216 185.989 500.216 180.016V139.184H509.944V178.096C509.944 182.619 510.541 186.416 511.736 189.488C513.016 192.475 514.893 194.736 517.368 196.272C519.928 197.808 523.043 198.576 526.712 198.576C529.528 198.576 532.131 198.107 534.52 197.168C536.909 196.144 539 194.779 540.792 193.072C542.584 191.365 543.992 189.36 545.016 187.056C546.04 184.752 546.552 182.32 546.552 179.76V139.184H556.152V206H546.68L546.296 191.92L547.832 191.152C546.808 194.139 545.101 196.869 542.712 199.344C540.323 201.733 537.464 203.653 534.136 205.104C530.893 206.555 527.523 207.28 524.024 207.28ZM596.732 207.28C591.015 207.28 585.895 206.213 581.372 204.08C576.849 201.947 573.265 199.131 570.62 195.632L577.404 189.744C579.879 192.731 582.78 194.992 586.108 196.528C589.521 198.064 593.319 198.832 597.5 198.832C599.633 198.832 601.553 198.619 603.26 198.192C604.967 197.68 606.46 196.955 607.74 196.016C609.02 195.077 610.001 193.968 610.684 192.688C611.367 191.408 611.708 190 611.708 188.464C611.708 185.648 610.471 183.301 607.996 181.424C606.887 180.656 605.308 179.888 603.26 179.12C601.212 178.267 598.737 177.456 595.836 176.688C591.057 175.323 587.089 173.957 583.932 172.592C580.775 171.141 578.3 169.477 576.508 167.6C575.228 166.064 574.247 164.4 573.564 162.608C572.967 160.816 572.668 158.853 572.668 156.72C572.668 153.989 573.223 151.472 574.332 149.168C575.527 146.864 577.148 144.859 579.196 143.152C581.329 141.36 583.804 140.037 586.62 139.184C589.521 138.245 592.636 137.776 595.964 137.776C599.121 137.776 602.236 138.203 605.308 139.056C608.38 139.909 611.239 141.147 613.884 142.768C616.529 144.389 618.791 146.309 620.668 148.528L614.78 154.928C613.159 153.221 611.367 151.685 609.404 150.32C607.441 148.955 605.351 147.888 603.132 147.12C600.999 146.352 598.78 145.968 596.476 145.968C594.428 145.968 592.508 146.224 590.716 146.736C589.009 147.248 587.516 147.973 586.236 148.912C585.041 149.765 584.103 150.832 583.42 152.112C582.823 153.392 582.524 154.8 582.524 156.336C582.524 157.616 582.78 158.768 583.292 159.792C583.804 160.816 584.529 161.712 585.468 162.48C586.663 163.419 588.327 164.315 590.46 165.168C592.679 165.936 595.409 166.747 598.652 167.6C602.407 168.624 605.564 169.691 608.124 170.8C610.769 171.824 612.945 173.061 614.652 174.512C616.956 176.219 618.577 178.181 619.516 180.4C620.54 182.619 621.052 185.136 621.052 187.952C621.052 191.707 619.985 195.035 617.852 197.936C615.804 200.837 612.945 203.141 609.276 204.848C605.607 206.469 601.425 207.28 596.732 207.28ZM665.534 207.28C658.878 207.28 652.947 205.829 647.742 202.928C642.622 200.027 638.611 195.973 635.71 190.768C632.809 185.563 631.358 179.589 631.358 172.848C631.358 167.643 632.169 162.949 633.79 158.768C635.411 154.501 637.673 150.789 640.574 147.632C643.561 144.475 647.102 142.043 651.198 140.336C655.294 138.544 659.731 137.648 664.51 137.648C669.033 137.648 673.129 138.459 676.798 140.08C680.553 141.701 683.753 143.963 686.398 146.864C689.129 149.68 691.177 153.051 692.542 156.976C693.907 160.901 694.505 165.211 694.334 169.904L694.206 174.384H638.526L637.118 166.32H686.91L684.606 168.496V165.424C684.435 162.352 683.539 159.408 681.918 156.592C680.297 153.691 677.993 151.344 675.006 149.552C672.105 147.76 668.606 146.864 664.51 146.864C659.731 146.864 655.593 147.845 652.094 149.808C648.595 151.685 645.907 154.501 644.03 158.256C642.153 162.011 641.214 166.661 641.214 172.208C641.214 177.499 642.238 182.107 644.286 186.032C646.334 189.872 649.235 192.859 652.99 194.992C656.83 197.125 661.438 198.192 666.814 198.192C669.971 198.192 673.086 197.68 676.158 196.656C679.315 195.547 682.771 193.413 686.526 190.256L691.518 197.168C689.555 199.131 687.209 200.88 684.478 202.416C681.747 203.867 678.761 205.061 675.518 206C672.275 206.853 668.947 207.28 665.534 207.28ZM773.412 207.28C766.756 207.28 760.825 205.787 755.62 202.8C750.5 199.813 746.447 195.675 743.46 190.384C740.559 185.093 739.108 179.077 739.108 172.336C739.108 165.68 740.559 159.749 743.46 154.544C746.447 149.339 750.5 145.243 755.62 142.256C760.825 139.269 766.756 137.776 773.412 137.776C779.983 137.776 785.828 139.269 790.948 142.256C796.153 145.243 800.207 149.339 803.108 154.544C806.095 159.749 807.588 165.68 807.588 172.336C807.588 179.077 806.095 185.093 803.108 190.384C800.207 195.675 796.153 199.813 790.948 202.8C785.828 205.787 779.983 207.28 773.412 207.28ZM773.412 198.192C778.105 198.192 782.287 197.083 785.956 194.864C789.625 192.56 792.484 189.488 794.532 185.648C796.58 181.723 797.604 177.285 797.604 172.336C797.604 167.387 796.58 162.992 794.532 159.152C792.484 155.312 789.625 152.325 785.956 150.192C782.287 147.973 778.105 146.864 773.412 146.864C768.719 146.864 764.495 147.973 760.74 150.192C757.071 152.325 754.169 155.355 752.036 159.28C749.988 163.12 749.007 167.472 749.092 172.336C749.007 177.285 749.988 181.723 752.036 185.648C754.169 189.488 757.071 192.56 760.74 194.864C764.495 197.083 768.719 198.192 773.412 198.192ZM826.774 206V128.816C826.774 125.488 827.499 122.544 828.95 119.984C830.401 117.424 832.449 115.419 835.094 113.968C837.825 112.432 840.982 111.664 844.566 111.664C847.297 111.664 849.729 112.176 851.862 113.2C854.081 114.139 855.915 115.461 857.366 117.168L854.038 124.72C852.673 123.269 851.179 122.245 849.558 121.648C848.022 120.965 846.529 120.624 845.078 120.624C843.201 120.624 841.622 120.965 840.342 121.648C839.062 122.245 838.081 123.184 837.398 124.464C836.801 125.659 836.502 127.109 836.502 128.816V206H832.022C831.083 206 830.187 206 829.334 206C828.481 206 827.627 206 826.774 206ZM814.87 148.656V139.696H853.526V148.656H814.87ZM924.208 206L897.2 116.4H907.952L925.232 175.536C925.915 177.584 926.469 179.547 926.896 181.424C927.408 183.216 927.835 184.965 928.176 186.672C928.517 188.293 928.859 189.957 929.2 191.664C929.541 193.285 929.883 194.992 930.224 196.784L928.048 196.656C929.157 192.731 930.053 189.616 930.736 187.312C931.504 185.008 932.229 182.96 932.912 181.168C933.595 179.376 934.363 177.328 935.216 175.024L950.32 137.008H959.664L974.896 175.408C975.92 177.797 976.816 180.059 977.584 182.192C978.352 184.325 979.077 186.501 979.76 188.72C980.528 190.939 981.253 193.413 981.936 196.144L979.888 196.528C980.315 194.395 980.656 192.645 980.912 191.28C981.168 189.915 981.424 188.72 981.68 187.696C981.936 186.587 982.192 185.52 982.448 184.496C982.704 183.387 983.045 182.107 983.472 180.656C983.899 179.12 984.453 177.2 985.136 174.896L1002.42 116.4H1013.17L985.904 206H977.584L953.392 148.4L955.696 148.784L932.4 206H924.208ZM1051.78 207.28C1045.13 207.28 1039.2 205.829 1033.99 202.928C1028.87 200.027 1024.86 195.973 1021.96 190.768C1019.06 185.563 1017.61 179.589 1017.61 172.848C1017.61 167.643 1018.42 162.949 1020.04 158.768C1021.66 154.501 1023.92 150.789 1026.82 147.632C1029.81 144.475 1033.35 142.043 1037.45 140.336C1041.54 138.544 1045.98 137.648 1050.76 137.648C1055.28 137.648 1059.38 138.459 1063.05 140.08C1066.8 141.701 1070 143.963 1072.65 146.864C1075.38 149.68 1077.43 153.051 1078.79 156.976C1080.16 160.901 1080.75 165.211 1080.58 169.904L1080.46 174.384H1024.78L1023.37 166.32H1073.16L1070.86 168.496V165.424C1070.69 162.352 1069.79 159.408 1068.17 156.592C1066.55 153.691 1064.24 151.344 1061.26 149.552C1058.35 147.76 1054.86 146.864 1050.76 146.864C1045.98 146.864 1041.84 147.845 1038.34 149.808C1034.85 151.685 1032.16 154.501 1030.28 158.256C1028.4 162.011 1027.46 166.661 1027.46 172.208C1027.46 177.499 1028.49 182.107 1030.54 186.032C1032.58 189.872 1035.49 192.859 1039.24 194.992C1043.08 197.125 1047.69 198.192 1053.06 198.192C1056.22 198.192 1059.34 197.68 1062.41 196.656C1065.57 195.547 1069.02 193.413 1072.78 190.256L1077.77 197.168C1075.81 199.131 1073.46 200.88 1070.73 202.416C1068 203.867 1065.01 205.061 1061.77 206C1058.53 206.853 1055.2 207.28 1051.78 207.28ZM1128.14 207.28C1124.98 207.28 1121.91 206.811 1118.92 205.872C1115.94 204.848 1113.21 203.483 1110.73 201.776C1108.34 200.069 1106.29 198.107 1104.59 195.888C1102.97 193.669 1101.86 191.365 1101.26 188.976L1104.08 189.104L1103.69 205.872H1094.22V111.28H1103.82V155.184L1101.9 155.696C1102.5 153.307 1103.56 151.045 1105.1 148.912C1106.72 146.693 1108.73 144.773 1111.12 143.152C1113.5 141.445 1116.11 140.123 1118.92 139.184C1121.82 138.245 1124.81 137.776 1127.88 137.776C1133.86 137.776 1139.19 139.269 1143.88 142.256C1148.66 145.243 1152.46 149.339 1155.28 154.544C1158.09 159.749 1159.5 165.723 1159.5 172.464C1159.5 179.205 1158.13 185.221 1155.4 190.512C1152.67 195.717 1148.92 199.813 1144.14 202.8C1139.45 205.787 1134.11 207.28 1128.14 207.28ZM1126.6 198.192C1131.13 198.192 1135.14 197.083 1138.64 194.864C1142.13 192.56 1144.86 189.488 1146.83 185.648C1148.88 181.723 1149.9 177.328 1149.9 172.464C1149.9 167.515 1148.88 163.12 1146.83 159.28C1144.86 155.44 1142.13 152.411 1138.64 150.192C1135.14 147.973 1131.13 146.864 1126.6 146.864C1122.08 146.864 1118.07 147.973 1114.57 150.192C1111.07 152.411 1108.3 155.44 1106.25 159.28C1104.29 163.12 1103.31 167.515 1103.31 172.464C1103.31 177.413 1104.29 181.851 1106.25 185.776C1108.3 189.616 1111.07 192.645 1114.57 194.864C1118.07 197.083 1122.08 198.192 1126.6 198.192ZM1196.89 207.28C1190.58 207.28 1184.99 205.872 1180.12 203.056C1175.35 200.155 1170.87 195.248 1166.69 188.336L1174.88 183.216C1177.18 186.885 1179.53 189.829 1181.92 192.048C1184.39 194.181 1186.91 195.717 1189.47 196.656C1192.03 197.595 1194.76 198.064 1197.66 198.064C1201.25 198.064 1204.53 197.211 1207.52 195.504C1210.5 193.712 1212.89 191.323 1214.69 188.336C1216.48 185.264 1217.37 181.851 1217.37 178.096C1217.37 174.256 1216.56 170.885 1214.94 167.984C1213.32 165.083 1211.06 162.821 1208.16 161.2C1205.34 159.579 1202.06 158.768 1198.3 158.768C1196.94 158.768 1195.44 158.939 1193.82 159.28C1192.29 159.536 1190.58 160.091 1188.7 160.944C1186.91 161.712 1184.95 162.864 1182.81 164.4L1179.87 156.464L1211.49 122.032L1213.66 125.744H1172.96V116.4H1221.34L1223.9 121.52L1193.18 154.288L1190.62 151.728C1191.73 151.045 1193.05 150.491 1194.59 150.064C1196.13 149.552 1197.66 149.296 1199.2 149.296C1203.12 149.296 1206.79 150.021 1210.21 151.472C1213.62 152.923 1216.56 154.971 1219.04 157.616C1221.6 160.176 1223.6 163.163 1225.05 166.576C1226.5 169.989 1227.23 173.701 1227.23 177.712C1227.23 183.259 1225.91 188.293 1223.26 192.816C1220.62 197.253 1216.99 200.795 1212.38 203.44C1207.77 206 1202.61 207.28 1196.89 207.28Z" fill="black"/>
</svg>
